<mxfile host="app.diagrams.net" agent="Mozilla/5.0 (Windows NT 10.0; Win64; x64) AppleWebKit/537.36 (KHTML, like Gecko) Chrome/137.0.0.0 Safari/537.36" version="27.1.5">
  <diagram name="PÃ¡gina-1" id="VfN55hIFQOsVx0A9dg8w">
    <mxGraphModel dx="2216" dy="591" grid="1" gridSize="10" guides="1" tooltips="1" connect="1" arrows="1" fold="1" page="1" pageScale="1" pageWidth="827" pageHeight="1169" background="none" math="0" shadow="0">
      <root>
        <mxCell id="0" />
        <mxCell id="1" parent="0" />
        <mxCell id="lKtMxn7UXAgc3Q8io_sC-12" value="Producto &amp;lt;abstracta&amp;gt;" style="swimlane;fontStyle=1;align=center;verticalAlign=top;childLayout=stackLayout;horizontal=1;startSize=26;horizontalStack=0;resizeParent=1;resizeParentMax=0;resizeLast=0;collapsible=1;marginBottom=0;whiteSpace=wrap;html=1;" parent="1" vertex="1">
          <mxGeometry x="310" y="80" width="250" height="190" as="geometry">
            <mxRectangle x="374" y="80" width="80" height="30" as="alternateBounds" />
          </mxGeometry>
        </mxCell>
        <mxCell id="lKtMxn7UXAgc3Q8io_sC-13" value="-nombre: string&lt;div&gt;-precio: double&lt;/div&gt;" style="text;strokeColor=none;fillColor=none;align=left;verticalAlign=top;spacingLeft=4;spacingRight=4;overflow=hidden;rotatable=0;points=[[0,0.5],[1,0.5]];portConstraint=eastwest;whiteSpace=wrap;html=1;" parent="lKtMxn7UXAgc3Q8io_sC-12" vertex="1">
          <mxGeometry y="26" width="250" height="44" as="geometry" />
        </mxCell>
        <mxCell id="lKtMxn7UXAgc3Q8io_sC-14" value="" style="line;strokeWidth=1;fillColor=none;align=left;verticalAlign=middle;spacingTop=-1;spacingLeft=3;spacingRight=3;rotatable=0;labelPosition=right;points=[];portConstraint=eastwest;strokeColor=inherit;" parent="lKtMxn7UXAgc3Q8io_sC-12" vertex="1">
          <mxGeometry y="70" width="250" height="8" as="geometry" />
        </mxCell>
        <mxCell id="lKtMxn7UXAgc3Q8io_sC-15" value="+getNombre(): string&lt;div&gt;+getPrecio(): double&lt;/div&gt;&lt;div&gt;+setNombre(string): void&lt;/div&gt;&lt;div&gt;+setPrecio(double): void&lt;/div&gt;&lt;div&gt;+descripcion(): string {abstracto}&lt;/div&gt;&lt;div&gt;+operador==(Producto): bool&lt;/div&gt;&lt;div&gt;+~Producto(): virtual&lt;/div&gt;" style="text;strokeColor=none;fillColor=none;align=left;verticalAlign=top;spacingLeft=4;spacingRight=4;overflow=hidden;rotatable=0;points=[[0,0.5],[1,0.5]];portConstraint=eastwest;whiteSpace=wrap;html=1;" parent="lKtMxn7UXAgc3Q8io_sC-12" vertex="1">
          <mxGeometry y="78" width="250" height="112" as="geometry" />
        </mxCell>
        <mxCell id="lKtMxn7UXAgc3Q8io_sC-17" value="Electronico" style="swimlane;fontStyle=1;align=center;verticalAlign=top;childLayout=stackLayout;horizontal=1;startSize=26;horizontalStack=0;resizeParent=1;resizeParentMax=0;resizeLast=0;collapsible=1;marginBottom=0;whiteSpace=wrap;html=1;" parent="1" vertex="1">
          <mxGeometry x="660" y="80" width="250" height="120" as="geometry">
            <mxRectangle x="374" y="80" width="80" height="30" as="alternateBounds" />
          </mxGeometry>
        </mxCell>
        <mxCell id="lKtMxn7UXAgc3Q8io_sC-18" value="-garantiaMeses: int" style="text;strokeColor=none;fillColor=none;align=left;verticalAlign=top;spacingLeft=4;spacingRight=4;overflow=hidden;rotatable=0;points=[[0,0.5],[1,0.5]];portConstraint=eastwest;whiteSpace=wrap;html=1;" parent="lKtMxn7UXAgc3Q8io_sC-17" vertex="1">
          <mxGeometry y="26" width="250" height="34" as="geometry" />
        </mxCell>
        <mxCell id="lKtMxn7UXAgc3Q8io_sC-19" value="" style="line;strokeWidth=1;fillColor=none;align=left;verticalAlign=middle;spacingTop=-1;spacingLeft=3;spacingRight=3;rotatable=0;labelPosition=right;points=[];portConstraint=eastwest;strokeColor=inherit;" parent="lKtMxn7UXAgc3Q8io_sC-17" vertex="1">
          <mxGeometry y="60" width="250" height="8" as="geometry" />
        </mxCell>
        <mxCell id="lKtMxn7UXAgc3Q8io_sC-20" value="&lt;div&gt;&lt;div&gt;+getGarantia(): int&lt;/div&gt;&lt;/div&gt;&lt;div&gt;+setGarantia(int): void&lt;/div&gt;&lt;div&gt;+descripcion(): string&lt;/div&gt;" style="text;strokeColor=none;fillColor=none;align=left;verticalAlign=top;spacingLeft=4;spacingRight=4;overflow=hidden;rotatable=0;points=[[0,0.5],[1,0.5]];portConstraint=eastwest;whiteSpace=wrap;html=1;" parent="lKtMxn7UXAgc3Q8io_sC-17" vertex="1">
          <mxGeometry y="68" width="250" height="52" as="geometry" />
        </mxCell>
        <mxCell id="lKtMxn7UXAgc3Q8io_sC-26" value="" style="endArrow=block;endSize=16;endFill=0;html=1;rounded=0;entryX=1;entryY=0.5;entryDx=0;entryDy=0;exitX=0;exitY=0.764;exitDx=0;exitDy=0;exitPerimeter=0;" parent="1" source="lKtMxn7UXAgc3Q8io_sC-18" edge="1">
          <mxGeometry width="160" relative="1" as="geometry">
            <mxPoint x="735" y="293" as="sourcePoint" />
            <mxPoint x="560" y="140" as="targetPoint" />
            <Array as="points" />
          </mxGeometry>
        </mxCell>
        <mxCell id="lKtMxn7UXAgc3Q8io_sC-27" value="Ropa" style="swimlane;fontStyle=1;align=center;verticalAlign=top;childLayout=stackLayout;horizontal=1;startSize=26;horizontalStack=0;resizeParent=1;resizeParentMax=0;resizeLast=0;collapsible=1;marginBottom=0;whiteSpace=wrap;html=1;" parent="1" vertex="1">
          <mxGeometry x="-50" y="80" width="250" height="130" as="geometry">
            <mxRectangle x="374" y="80" width="80" height="30" as="alternateBounds" />
          </mxGeometry>
        </mxCell>
        <mxCell id="lKtMxn7UXAgc3Q8io_sC-28" value="-talla: string" style="text;strokeColor=none;fillColor=none;align=left;verticalAlign=top;spacingLeft=4;spacingRight=4;overflow=hidden;rotatable=0;points=[[0,0.5],[1,0.5]];portConstraint=eastwest;whiteSpace=wrap;html=1;" parent="lKtMxn7UXAgc3Q8io_sC-27" vertex="1">
          <mxGeometry y="26" width="250" height="34" as="geometry" />
        </mxCell>
        <mxCell id="lKtMxn7UXAgc3Q8io_sC-29" value="" style="line;strokeWidth=1;fillColor=none;align=left;verticalAlign=middle;spacingTop=-1;spacingLeft=3;spacingRight=3;rotatable=0;labelPosition=right;points=[];portConstraint=eastwest;strokeColor=inherit;" parent="lKtMxn7UXAgc3Q8io_sC-27" vertex="1">
          <mxGeometry y="60" width="250" height="8" as="geometry" />
        </mxCell>
        <mxCell id="lKtMxn7UXAgc3Q8io_sC-30" value="&lt;div&gt;+getTalla(): string&lt;/div&gt;&lt;div&gt;+setTalla(string): void&lt;/div&gt;&lt;div&gt;+descripcion(): string&lt;/div&gt;" style="text;strokeColor=none;fillColor=none;align=left;verticalAlign=top;spacingLeft=4;spacingRight=4;overflow=hidden;rotatable=0;points=[[0,0.5],[1,0.5]];portConstraint=eastwest;whiteSpace=wrap;html=1;" parent="lKtMxn7UXAgc3Q8io_sC-27" vertex="1">
          <mxGeometry y="68" width="250" height="62" as="geometry" />
        </mxCell>
        <mxCell id="lKtMxn7UXAgc3Q8io_sC-31" value="" style="endArrow=block;endSize=16;endFill=0;html=1;rounded=0;exitX=1.008;exitY=0.653;exitDx=0;exitDy=0;exitPerimeter=0;" parent="1" edge="1">
          <mxGeometry width="160" relative="1" as="geometry">
            <mxPoint x="200" y="144.52199999999993" as="sourcePoint" />
            <mxPoint x="308" y="145.02" as="targetPoint" />
            <Array as="points" />
          </mxGeometry>
        </mxCell>
        <mxCell id="lKtMxn7UXAgc3Q8io_sC-36" value="Carrito" style="swimlane;fontStyle=1;align=center;verticalAlign=top;childLayout=stackLayout;horizontal=1;startSize=26;horizontalStack=0;resizeParent=1;resizeParentMax=0;resizeLast=0;collapsible=1;marginBottom=0;whiteSpace=wrap;html=1;" parent="1" vertex="1">
          <mxGeometry x="320" y="380" width="250" height="130" as="geometry">
            <mxRectangle x="374" y="80" width="80" height="30" as="alternateBounds" />
          </mxGeometry>
        </mxCell>
        <mxCell id="lKtMxn7UXAgc3Q8io_sC-37" value="-productos: vector&amp;lt;Producto*&amp;gt;" style="text;strokeColor=none;fillColor=none;align=left;verticalAlign=top;spacingLeft=4;spacingRight=4;overflow=hidden;rotatable=0;points=[[0,0.5],[1,0.5]];portConstraint=eastwest;whiteSpace=wrap;html=1;" parent="lKtMxn7UXAgc3Q8io_sC-36" vertex="1">
          <mxGeometry y="26" width="250" height="24" as="geometry" />
        </mxCell>
        <mxCell id="lKtMxn7UXAgc3Q8io_sC-38" value="" style="line;strokeWidth=1;fillColor=none;align=left;verticalAlign=middle;spacingTop=-1;spacingLeft=3;spacingRight=3;rotatable=0;labelPosition=right;points=[];portConstraint=eastwest;strokeColor=inherit;" parent="lKtMxn7UXAgc3Q8io_sC-36" vertex="1">
          <mxGeometry y="50" width="250" height="8" as="geometry" />
        </mxCell>
        <mxCell id="lKtMxn7UXAgc3Q8io_sC-39" value="&lt;div&gt;+agregarProducto(Producto*): void&lt;/div&gt;&lt;div&gt;+calcularTotal(): double&lt;br&gt;+mostrarProductos(): void&lt;/div&gt;&lt;div&gt;+operador+=(Producto*): Carrito&amp;amp;&lt;/div&gt;" style="text;strokeColor=none;fillColor=none;align=left;verticalAlign=top;spacingLeft=4;spacingRight=4;overflow=hidden;rotatable=0;points=[[0,0.5],[1,0.5]];portConstraint=eastwest;whiteSpace=wrap;html=1;" parent="lKtMxn7UXAgc3Q8io_sC-36" vertex="1">
          <mxGeometry y="58" width="250" height="72" as="geometry" />
        </mxCell>
        <mxCell id="mNhr3-gr9J9nBQXXuoeo-4" value="" style="endArrow=diamondThin;endFill=0;endSize=24;html=1;rounded=0;" edge="1" parent="1" target="lKtMxn7UXAgc3Q8io_sC-15">
          <mxGeometry width="160" relative="1" as="geometry">
            <mxPoint x="434.38" y="380" as="sourcePoint" />
            <mxPoint x="434.63" y="285.264" as="targetPoint" />
          </mxGeometry>
        </mxCell>
        <mxCell id="mNhr3-gr9J9nBQXXuoeo-6" value="0..*" style="text;html=1;align=center;verticalAlign=middle;whiteSpace=wrap;rounded=0;" vertex="1" parent="1">
          <mxGeometry x="430" y="270" width="60" height="30" as="geometry" />
        </mxCell>
        <mxCell id="mNhr3-gr9J9nBQXXuoeo-7" value="1" style="text;html=1;align=center;verticalAlign=middle;whiteSpace=wrap;rounded=0;" vertex="1" parent="1">
          <mxGeometry x="415" y="350" width="60" height="30" as="geometry" />
        </mxCell>
      </root>
    </mxGraphModel>
  </diagram>
</mxfile>
